<mxfile host="app.diagrams.net" agent="Mozilla/5.0 (Windows NT 10.0; Win64; x64; rv:142.0) Gecko/20100101 Firefox/142.0" version="28.2.0">
  <diagram name="Page-1" id="b5b7bab2-c9e2-2cf4-8b2a-24fd1a2a6d21">
    <mxGraphModel dx="1426" dy="758" grid="1" gridSize="10" guides="1" tooltips="1" connect="1" arrows="1" fold="1" page="1" pageScale="1" pageWidth="827" pageHeight="1169" background="none" math="0" shadow="0">
      <root>
        <mxCell id="0" />
        <mxCell id="1" parent="0" />
        <mxCell id="0DI34ew886V9a4v7iorF-2" value="" style="rounded=0;whiteSpace=wrap;html=1;" vertex="1" parent="1">
          <mxGeometry x="230" y="500" width="400" height="470" as="geometry" />
        </mxCell>
        <mxCell id="0DI34ew886V9a4v7iorF-4" value="Car" style="text;html=1;align=center;verticalAlign=middle;whiteSpace=wrap;rounded=0;" vertex="1" parent="1">
          <mxGeometry x="395" y="510" width="60" height="30" as="geometry" />
        </mxCell>
        <mxCell id="0DI34ew886V9a4v7iorF-5" value="Engine [1]" style="rounded=0;whiteSpace=wrap;html=1;" vertex="1" parent="1">
          <mxGeometry x="372.5" y="555" width="115" height="40" as="geometry" />
        </mxCell>
        <mxCell id="0DI34ew886V9a4v7iorF-7" value="Transmission" style="rounded=0;whiteSpace=wrap;html=1;" vertex="1" parent="1">
          <mxGeometry x="370" y="640" width="115" height="40" as="geometry" />
        </mxCell>
        <mxCell id="0DI34ew886V9a4v7iorF-8" value="Wheel" style="rounded=0;whiteSpace=wrap;html=1;" vertex="1" parent="1">
          <mxGeometry x="240" y="730" width="90" height="40" as="geometry" />
        </mxCell>
        <mxCell id="0DI34ew886V9a4v7iorF-9" value="Wheel" style="rounded=0;whiteSpace=wrap;html=1;" vertex="1" parent="1">
          <mxGeometry x="240" y="810" width="90" height="40" as="geometry" />
        </mxCell>
        <mxCell id="0DI34ew886V9a4v7iorF-10" value="Wheel" style="rounded=0;whiteSpace=wrap;html=1;" vertex="1" parent="1">
          <mxGeometry x="530" y="730" width="90" height="40" as="geometry" />
        </mxCell>
        <mxCell id="0DI34ew886V9a4v7iorF-11" value="Wheel" style="rounded=0;whiteSpace=wrap;html=1;" vertex="1" parent="1">
          <mxGeometry x="530" y="810" width="90" height="40" as="geometry" />
        </mxCell>
        <mxCell id="0DI34ew886V9a4v7iorF-12" value="" style="ellipse;whiteSpace=wrap;html=1;aspect=fixed;" vertex="1" parent="1">
          <mxGeometry x="110" y="560" width="30" height="30" as="geometry" />
        </mxCell>
        <mxCell id="0DI34ew886V9a4v7iorF-13" value="" style="whiteSpace=wrap;html=1;aspect=fixed;" vertex="1" parent="1">
          <mxGeometry x="220" y="565" width="20" height="20" as="geometry" />
        </mxCell>
        <mxCell id="0DI34ew886V9a4v7iorF-15" value="" style="endArrow=none;html=1;rounded=0;entryX=0.5;entryY=1;entryDx=0;entryDy=0;exitX=1;exitY=0.5;exitDx=0;exitDy=0;" edge="1" parent="1" source="0DI34ew886V9a4v7iorF-8" target="0DI34ew886V9a4v7iorF-7">
          <mxGeometry width="50" height="50" relative="1" as="geometry">
            <mxPoint x="330" y="770" as="sourcePoint" />
            <mxPoint x="380" y="720" as="targetPoint" />
          </mxGeometry>
        </mxCell>
        <mxCell id="0DI34ew886V9a4v7iorF-17" value="" style="endArrow=none;html=1;rounded=0;entryX=0.5;entryY=1;entryDx=0;entryDy=0;exitX=0.5;exitY=0;exitDx=0;exitDy=0;" edge="1" parent="1" source="0DI34ew886V9a4v7iorF-7" target="0DI34ew886V9a4v7iorF-5">
          <mxGeometry width="50" height="50" relative="1" as="geometry">
            <mxPoint x="330" y="770" as="sourcePoint" />
            <mxPoint x="380" y="720" as="targetPoint" />
          </mxGeometry>
        </mxCell>
        <mxCell id="0DI34ew886V9a4v7iorF-19" value="" style="endArrow=none;html=1;rounded=0;exitX=1;exitY=0.5;exitDx=0;exitDy=0;entryX=0;entryY=0.5;entryDx=0;entryDy=0;" edge="1" parent="1" source="0DI34ew886V9a4v7iorF-12" target="0DI34ew886V9a4v7iorF-13">
          <mxGeometry width="50" height="50" relative="1" as="geometry">
            <mxPoint x="330" y="770" as="sourcePoint" />
            <mxPoint x="380" y="720" as="targetPoint" />
          </mxGeometry>
        </mxCell>
        <mxCell id="0DI34ew886V9a4v7iorF-20" value="" style="endArrow=none;html=1;rounded=0;entryX=0.5;entryY=1;entryDx=0;entryDy=0;exitX=0;exitY=0.5;exitDx=0;exitDy=0;" edge="1" parent="1" source="0DI34ew886V9a4v7iorF-10" target="0DI34ew886V9a4v7iorF-7">
          <mxGeometry width="50" height="50" relative="1" as="geometry">
            <mxPoint x="330" y="770" as="sourcePoint" />
            <mxPoint x="380" y="720" as="targetPoint" />
          </mxGeometry>
        </mxCell>
        <mxCell id="0DI34ew886V9a4v7iorF-21" value="" style="endArrow=none;html=1;rounded=0;exitX=1;exitY=0.5;exitDx=0;exitDy=0;" edge="1" parent="1" source="0DI34ew886V9a4v7iorF-9">
          <mxGeometry width="50" height="50" relative="1" as="geometry">
            <mxPoint x="330" y="770" as="sourcePoint" />
            <mxPoint x="430" y="680" as="targetPoint" />
          </mxGeometry>
        </mxCell>
        <mxCell id="0DI34ew886V9a4v7iorF-22" value="" style="endArrow=none;html=1;rounded=0;entryX=0.5;entryY=1;entryDx=0;entryDy=0;exitX=0;exitY=0.5;exitDx=0;exitDy=0;" edge="1" parent="1" source="0DI34ew886V9a4v7iorF-11" target="0DI34ew886V9a4v7iorF-7">
          <mxGeometry width="50" height="50" relative="1" as="geometry">
            <mxPoint x="330" y="770" as="sourcePoint" />
            <mxPoint x="380" y="720" as="targetPoint" />
          </mxGeometry>
        </mxCell>
        <mxCell id="0DI34ew886V9a4v7iorF-23" value="drive" style="text;html=1;align=center;verticalAlign=middle;whiteSpace=wrap;rounded=0;" vertex="1" parent="1">
          <mxGeometry x="180" y="580" width="60" height="30" as="geometry" />
        </mxCell>
        <mxCell id="0DI34ew886V9a4v7iorF-24" value="IVehicle" style="text;html=1;align=center;verticalAlign=middle;whiteSpace=wrap;rounded=0;" vertex="1" parent="1">
          <mxGeometry x="95" y="590" width="60" height="30" as="geometry" />
        </mxCell>
        <mxCell id="0DI34ew886V9a4v7iorF-25" value="" style="rounded=0;whiteSpace=wrap;html=1;" vertex="1" parent="1">
          <mxGeometry x="1070" y="495" width="410" height="475" as="geometry" />
        </mxCell>
        <mxCell id="0DI34ew886V9a4v7iorF-26" value="Car" style="text;html=1;align=center;verticalAlign=middle;whiteSpace=wrap;rounded=0;" vertex="1" parent="1">
          <mxGeometry x="1241" y="500" width="60" height="30" as="geometry" />
        </mxCell>
        <mxCell id="0DI34ew886V9a4v7iorF-27" value="" style="whiteSpace=wrap;html=1;aspect=fixed;" vertex="1" parent="1">
          <mxGeometry x="1060" y="550" width="20" height="20" as="geometry" />
        </mxCell>
        <mxCell id="0DI34ew886V9a4v7iorF-28" value="Drive" style="text;html=1;align=center;verticalAlign=middle;whiteSpace=wrap;rounded=0;" vertex="1" parent="1">
          <mxGeometry x="1070" y="545" width="60" height="30" as="geometry" />
        </mxCell>
        <mxCell id="0DI34ew886V9a4v7iorF-29" value="" style="endArrow=none;html=1;rounded=0;entryX=0;entryY=0.5;entryDx=0;entryDy=0;" edge="1" parent="1" target="0DI34ew886V9a4v7iorF-27">
          <mxGeometry width="50" height="50" relative="1" as="geometry">
            <mxPoint x="990" y="560" as="sourcePoint" />
            <mxPoint x="910" y="750" as="targetPoint" />
          </mxGeometry>
        </mxCell>
        <mxCell id="0DI34ew886V9a4v7iorF-30" value="" style="ellipse;whiteSpace=wrap;html=1;aspect=fixed;" vertex="1" parent="1">
          <mxGeometry x="960" y="545" width="30" height="30" as="geometry" />
        </mxCell>
        <mxCell id="0DI34ew886V9a4v7iorF-31" value="IDrivable" style="text;html=1;align=center;verticalAlign=middle;whiteSpace=wrap;rounded=0;" vertex="1" parent="1">
          <mxGeometry x="945" y="575" width="60" height="30" as="geometry" />
        </mxCell>
        <mxCell id="0DI34ew886V9a4v7iorF-32" value="engine: Engine [1]" style="rounded=0;whiteSpace=wrap;html=1;" vertex="1" parent="1">
          <mxGeometry x="1215" y="585" width="120" height="60" as="geometry" />
        </mxCell>
        <mxCell id="0DI34ew886V9a4v7iorF-33" value="transmission: Transmission [1]" style="rounded=0;whiteSpace=wrap;html=1;" vertex="1" parent="1">
          <mxGeometry x="1215" y="670" width="120" height="60" as="geometry" />
        </mxCell>
        <mxCell id="0DI34ew886V9a4v7iorF-34" value="frontWheels: Wheel [2]" style="rounded=0;whiteSpace=wrap;html=1;" vertex="1" parent="1">
          <mxGeometry x="1095" y="840" width="120" height="60" as="geometry" />
        </mxCell>
        <mxCell id="0DI34ew886V9a4v7iorF-35" value="backWheels: Wheel [2]" style="rounded=0;whiteSpace=wrap;html=1;" vertex="1" parent="1">
          <mxGeometry x="1350" y="840" width="120" height="60" as="geometry" />
        </mxCell>
        <mxCell id="0DI34ew886V9a4v7iorF-38" value="&quot;delegate&quot;" style="endArrow=none;html=1;rounded=0;exitX=0;exitY=0.5;exitDx=0;exitDy=0;entryX=0.983;entryY=0.683;entryDx=0;entryDy=0;dashed=1;entryPerimeter=0;startArrow=open;startFill=0;endFill=0;" edge="1" parent="1" source="0DI34ew886V9a4v7iorF-32" target="0DI34ew886V9a4v7iorF-30">
          <mxGeometry width="50" height="50" relative="1" as="geometry">
            <mxPoint x="860" y="800" as="sourcePoint" />
            <mxPoint x="910" y="750" as="targetPoint" />
          </mxGeometry>
        </mxCell>
        <mxCell id="0DI34ew886V9a4v7iorF-39" value="" style="endArrow=classic;html=1;rounded=0;exitX=0.5;exitY=1;exitDx=0;exitDy=0;entryX=0.5;entryY=0;entryDx=0;entryDy=0;" edge="1" parent="1" source="0DI34ew886V9a4v7iorF-32" target="0DI34ew886V9a4v7iorF-33">
          <mxGeometry width="50" height="50" relative="1" as="geometry">
            <mxPoint x="960" y="710" as="sourcePoint" />
            <mxPoint x="1010" y="660" as="targetPoint" />
          </mxGeometry>
        </mxCell>
        <mxCell id="0DI34ew886V9a4v7iorF-40" value="frontAxle" style="endArrow=classic;html=1;rounded=0;exitX=0.5;exitY=1;exitDx=0;exitDy=0;entryX=1;entryY=0.5;entryDx=0;entryDy=0;" edge="1" parent="1" source="0DI34ew886V9a4v7iorF-33" target="0DI34ew886V9a4v7iorF-34">
          <mxGeometry width="50" height="50" relative="1" as="geometry">
            <mxPoint x="960" y="710" as="sourcePoint" />
            <mxPoint x="1010" y="660" as="targetPoint" />
          </mxGeometry>
        </mxCell>
        <mxCell id="0DI34ew886V9a4v7iorF-41" value="backAxle" style="endArrow=classic;html=1;rounded=0;exitX=0.5;exitY=1;exitDx=0;exitDy=0;entryX=0;entryY=0.5;entryDx=0;entryDy=0;" edge="1" parent="1" source="0DI34ew886V9a4v7iorF-33" target="0DI34ew886V9a4v7iorF-35">
          <mxGeometry width="50" height="50" relative="1" as="geometry">
            <mxPoint x="1285" y="740" as="sourcePoint" />
            <mxPoint x="1225" y="800" as="targetPoint" />
          </mxGeometry>
        </mxCell>
        <mxCell id="0DI34ew886V9a4v7iorF-44" value="" style="ellipse;whiteSpace=wrap;html=1;dashed=1;" vertex="1" parent="1">
          <mxGeometry x="1530" y="520" width="380" height="220" as="geometry" />
        </mxCell>
        <mxCell id="0DI34ew886V9a4v7iorF-45" value="Driving" style="text;html=1;align=center;verticalAlign=middle;whiteSpace=wrap;rounded=0;" vertex="1" parent="1">
          <mxGeometry x="1680" y="525" width="60" height="30" as="geometry" />
        </mxCell>
        <mxCell id="0DI34ew886V9a4v7iorF-47" value="PowerSource" style="rounded=0;whiteSpace=wrap;html=1;" vertex="1" parent="1">
          <mxGeometry x="1570" y="640" width="100" height="40" as="geometry" />
        </mxCell>
        <mxCell id="0DI34ew886V9a4v7iorF-48" value="TorqueConverter" style="rounded=0;whiteSpace=wrap;html=1;" vertex="1" parent="1">
          <mxGeometry x="1760" y="640" width="100" height="40" as="geometry" />
        </mxCell>
        <mxCell id="0DI34ew886V9a4v7iorF-49" value="Mover" style="rounded=0;whiteSpace=wrap;html=1;" vertex="1" parent="1">
          <mxGeometry x="1660" y="575" width="100" height="40" as="geometry" />
        </mxCell>
        <mxCell id="0DI34ew886V9a4v7iorF-50" value="" style="endArrow=none;html=1;rounded=0;entryX=1;entryY=0.5;entryDx=0;entryDy=0;exitX=0;exitY=0.5;exitDx=0;exitDy=0;" edge="1" parent="1" source="0DI34ew886V9a4v7iorF-48" target="0DI34ew886V9a4v7iorF-47">
          <mxGeometry width="50" height="50" relative="1" as="geometry">
            <mxPoint x="1360" y="760" as="sourcePoint" />
            <mxPoint x="1410" y="710" as="targetPoint" />
          </mxGeometry>
        </mxCell>
        <mxCell id="0DI34ew886V9a4v7iorF-51" value="" style="endArrow=none;html=1;rounded=0;entryX=0.5;entryY=0;entryDx=0;entryDy=0;exitX=1;exitY=0.5;exitDx=0;exitDy=0;" edge="1" parent="1" source="0DI34ew886V9a4v7iorF-49" target="0DI34ew886V9a4v7iorF-48">
          <mxGeometry width="50" height="50" relative="1" as="geometry">
            <mxPoint x="1360" y="760" as="sourcePoint" />
            <mxPoint x="1410" y="710" as="targetPoint" />
          </mxGeometry>
        </mxCell>
        <mxCell id="0DI34ew886V9a4v7iorF-52" value="Role" style="endArrow=classic;html=1;rounded=0;exitX=0.013;exitY=0.423;exitDx=0;exitDy=0;exitPerimeter=0;entryX=1;entryY=0.5;entryDx=0;entryDy=0;dashed=1;" edge="1" parent="1" source="0DI34ew886V9a4v7iorF-44" target="0DI34ew886V9a4v7iorF-32">
          <mxGeometry width="50" height="50" relative="1" as="geometry">
            <mxPoint x="1400" y="790" as="sourcePoint" />
            <mxPoint x="1450" y="740" as="targetPoint" />
          </mxGeometry>
        </mxCell>
        <mxCell id="0DI34ew886V9a4v7iorF-55" value="" style="rounded=0;whiteSpace=wrap;html=1;" vertex="1" parent="1">
          <mxGeometry x="1080" y="1060" width="490" height="660" as="geometry" />
        </mxCell>
        <mxCell id="0DI34ew886V9a4v7iorF-56" value="CoffeeMaker" style="text;html=1;align=center;verticalAlign=middle;whiteSpace=wrap;rounded=0;" vertex="1" parent="1">
          <mxGeometry x="1241" y="1070" width="60" height="30" as="geometry" />
        </mxCell>
        <mxCell id="0DI34ew886V9a4v7iorF-57" value="" style="whiteSpace=wrap;html=1;aspect=fixed;" vertex="1" parent="1">
          <mxGeometry x="1070" y="1120" width="20" height="20" as="geometry" />
        </mxCell>
        <mxCell id="0DI34ew886V9a4v7iorF-58" value="brew" style="text;html=1;align=center;verticalAlign=middle;whiteSpace=wrap;rounded=0;" vertex="1" parent="1">
          <mxGeometry x="1090" y="1115" width="60" height="30" as="geometry" />
        </mxCell>
        <mxCell id="0DI34ew886V9a4v7iorF-59" value="" style="ellipse;whiteSpace=wrap;html=1;aspect=fixed;" vertex="1" parent="1">
          <mxGeometry x="930" y="1115" width="30" height="30" as="geometry" />
        </mxCell>
        <mxCell id="0DI34ew886V9a4v7iorF-60" value="" style="endArrow=none;html=1;rounded=0;exitX=1;exitY=0.5;exitDx=0;exitDy=0;entryX=0;entryY=0.5;entryDx=0;entryDy=0;" edge="1" parent="1" source="0DI34ew886V9a4v7iorF-59" target="0DI34ew886V9a4v7iorF-57">
          <mxGeometry width="50" height="50" relative="1" as="geometry">
            <mxPoint x="1350" y="1320" as="sourcePoint" />
            <mxPoint x="1400" y="1270" as="targetPoint" />
          </mxGeometry>
        </mxCell>
        <mxCell id="0DI34ew886V9a4v7iorF-61" value="ICoffeeService" style="text;html=1;align=center;verticalAlign=middle;whiteSpace=wrap;rounded=0;" vertex="1" parent="1">
          <mxGeometry x="915" y="1145" width="60" height="30" as="geometry" />
        </mxCell>
        <mxCell id="0DI34ew886V9a4v7iorF-63" value="delegate" style="rounded=0;orthogonalLoop=1;jettySize=auto;html=1;entryX=1;entryY=1;entryDx=0;entryDy=0;startArrow=open;startFill=0;endArrow=none;endFill=0;exitX=0;exitY=0.5;exitDx=0;exitDy=0;" edge="1" parent="1" source="0DI34ew886V9a4v7iorF-62" target="0DI34ew886V9a4v7iorF-59">
          <mxGeometry relative="1" as="geometry" />
        </mxCell>
        <mxCell id="0DI34ew886V9a4v7iorF-62" value="controller : CoffeeController" style="rounded=0;whiteSpace=wrap;html=1;" vertex="1" parent="1">
          <mxGeometry x="1265" y="1169" width="120" height="60" as="geometry" />
        </mxCell>
        <mxCell id="0DI34ew886V9a4v7iorF-64" value="grinder : Grinder" style="rounded=0;whiteSpace=wrap;html=1;" vertex="1" parent="1">
          <mxGeometry x="1150" y="1340" width="120" height="60" as="geometry" />
        </mxCell>
        <mxCell id="0DI34ew886V9a4v7iorF-65" value="heater: Heater" style="rounded=0;whiteSpace=wrap;html=1;" vertex="1" parent="1">
          <mxGeometry x="1370" y="1340" width="120" height="60" as="geometry" />
        </mxCell>
        <mxCell id="0DI34ew886V9a4v7iorF-66" value="dispenser: Dispenser" style="rounded=0;whiteSpace=wrap;html=1;" vertex="1" parent="1">
          <mxGeometry x="1270" y="1610" width="120" height="60" as="geometry" />
        </mxCell>
        <mxCell id="0DI34ew886V9a4v7iorF-67" value="tank : WaterTank" style="rounded=0;whiteSpace=wrap;html=1;" vertex="1" parent="1">
          <mxGeometry x="1370" y="1480" width="120" height="60" as="geometry" />
        </mxCell>
        <mxCell id="0DI34ew886V9a4v7iorF-68" value="" style="endArrow=none;html=1;rounded=0;entryX=0.5;entryY=1;entryDx=0;entryDy=0;exitX=0.5;exitY=0;exitDx=0;exitDy=0;" edge="1" parent="1" source="0DI34ew886V9a4v7iorF-64" target="0DI34ew886V9a4v7iorF-62">
          <mxGeometry width="50" height="50" relative="1" as="geometry">
            <mxPoint x="1350" y="1440" as="sourcePoint" />
            <mxPoint x="1400" y="1390" as="targetPoint" />
          </mxGeometry>
        </mxCell>
        <mxCell id="0DI34ew886V9a4v7iorF-69" value="" style="endArrow=none;html=1;rounded=0;entryX=0.5;entryY=1;entryDx=0;entryDy=0;exitX=0.5;exitY=0;exitDx=0;exitDy=0;" edge="1" parent="1" source="0DI34ew886V9a4v7iorF-65" target="0DI34ew886V9a4v7iorF-62">
          <mxGeometry width="50" height="50" relative="1" as="geometry">
            <mxPoint x="1350" y="1440" as="sourcePoint" />
            <mxPoint x="1400" y="1390" as="targetPoint" />
          </mxGeometry>
        </mxCell>
        <mxCell id="0DI34ew886V9a4v7iorF-70" value="beans: BeanContainer" style="rounded=0;whiteSpace=wrap;html=1;" vertex="1" parent="1">
          <mxGeometry x="1150" y="1480" width="120" height="60" as="geometry" />
        </mxCell>
        <mxCell id="0DI34ew886V9a4v7iorF-71" value="" style="endArrow=none;html=1;rounded=0;entryX=0.5;entryY=1;entryDx=0;entryDy=0;" edge="1" parent="1" source="0DI34ew886V9a4v7iorF-70" target="0DI34ew886V9a4v7iorF-64">
          <mxGeometry width="50" height="50" relative="1" as="geometry">
            <mxPoint x="1350" y="1440" as="sourcePoint" />
            <mxPoint x="1400" y="1390" as="targetPoint" />
          </mxGeometry>
        </mxCell>
        <mxCell id="0DI34ew886V9a4v7iorF-72" value="" style="endArrow=none;html=1;rounded=0;entryX=0.5;entryY=1;entryDx=0;entryDy=0;exitX=0.5;exitY=0;exitDx=0;exitDy=0;" edge="1" parent="1" source="0DI34ew886V9a4v7iorF-67" target="0DI34ew886V9a4v7iorF-65">
          <mxGeometry width="50" height="50" relative="1" as="geometry">
            <mxPoint x="1350" y="1440" as="sourcePoint" />
            <mxPoint x="1400" y="1390" as="targetPoint" />
          </mxGeometry>
        </mxCell>
        <mxCell id="0DI34ew886V9a4v7iorF-73" value="" style="endArrow=none;html=1;rounded=0;entryX=0.5;entryY=1;entryDx=0;entryDy=0;exitX=0.5;exitY=0;exitDx=0;exitDy=0;" edge="1" parent="1" source="0DI34ew886V9a4v7iorF-66" target="0DI34ew886V9a4v7iorF-70">
          <mxGeometry width="50" height="50" relative="1" as="geometry">
            <mxPoint x="1350" y="1440" as="sourcePoint" />
            <mxPoint x="1400" y="1390" as="targetPoint" />
          </mxGeometry>
        </mxCell>
        <mxCell id="0DI34ew886V9a4v7iorF-74" value="" style="endArrow=none;html=1;rounded=0;entryX=0.5;entryY=1;entryDx=0;entryDy=0;exitX=0.5;exitY=0;exitDx=0;exitDy=0;" edge="1" parent="1" source="0DI34ew886V9a4v7iorF-66" target="0DI34ew886V9a4v7iorF-67">
          <mxGeometry width="50" height="50" relative="1" as="geometry">
            <mxPoint x="1350" y="1440" as="sourcePoint" />
            <mxPoint x="1400" y="1390" as="targetPoint" />
          </mxGeometry>
        </mxCell>
        <mxCell id="0DI34ew886V9a4v7iorF-88" value="role" style="rounded=0;orthogonalLoop=1;jettySize=auto;html=1;entryX=1;entryY=0.75;entryDx=0;entryDy=0;" edge="1" parent="1" source="0DI34ew886V9a4v7iorF-76" target="0DI34ew886V9a4v7iorF-66">
          <mxGeometry relative="1" as="geometry" />
        </mxCell>
        <mxCell id="0DI34ew886V9a4v7iorF-76" value="" style="ellipse;whiteSpace=wrap;html=1;dashed=1;" vertex="1" parent="1">
          <mxGeometry x="1645" y="1410" width="330" height="310" as="geometry" />
        </mxCell>
        <mxCell id="0DI34ew886V9a4v7iorF-77" value="Brewing" style="text;html=1;align=center;verticalAlign=middle;whiteSpace=wrap;rounded=0;" vertex="1" parent="1">
          <mxGeometry x="1780" y="1420" width="60" height="30" as="geometry" />
        </mxCell>
        <mxCell id="0DI34ew886V9a4v7iorF-78" value="WaterProvider" style="rounded=0;whiteSpace=wrap;html=1;" vertex="1" parent="1">
          <mxGeometry x="1835" y="1500" width="90" height="40" as="geometry" />
        </mxCell>
        <mxCell id="0DI34ew886V9a4v7iorF-80" value="mixer" style="rounded=0;whiteSpace=wrap;html=1;" vertex="1" parent="1">
          <mxGeometry x="1752.5" y="1610" width="95" height="40" as="geometry" />
        </mxCell>
        <mxCell id="0DI34ew886V9a4v7iorF-81" value="" style="endArrow=none;html=1;rounded=0;exitX=0.5;exitY=1;exitDx=0;exitDy=0;" edge="1" parent="1" source="0DI34ew886V9a4v7iorF-78" target="0DI34ew886V9a4v7iorF-80">
          <mxGeometry width="50" height="50" relative="1" as="geometry">
            <mxPoint x="1285" y="1700" as="sourcePoint" />
            <mxPoint x="1335" y="1650" as="targetPoint" />
          </mxGeometry>
        </mxCell>
        <mxCell id="0DI34ew886V9a4v7iorF-86" value="BeanProvider" style="rounded=0;whiteSpace=wrap;html=1;" vertex="1" parent="1">
          <mxGeometry x="1700" y="1500" width="90" height="40" as="geometry" />
        </mxCell>
        <mxCell id="0DI34ew886V9a4v7iorF-87" value="" style="endArrow=none;html=1;rounded=0;entryX=0.5;entryY=1;entryDx=0;entryDy=0;exitX=0.5;exitY=0;exitDx=0;exitDy=0;" edge="1" parent="1" source="0DI34ew886V9a4v7iorF-80" target="0DI34ew886V9a4v7iorF-86">
          <mxGeometry width="50" height="50" relative="1" as="geometry">
            <mxPoint x="1285" y="1550" as="sourcePoint" />
            <mxPoint x="1335" y="1500" as="targetPoint" />
          </mxGeometry>
        </mxCell>
      </root>
    </mxGraphModel>
  </diagram>
</mxfile>
